#!OML:ASF I:\golf\golf\golf 2\Subject 1\2002-09-07\Subject1.ASF
:FULLY-SPECIFIED
:DEGREES
221
root -10.7868 17.9782 4.58353 -5.83539 80.8532 -25.2256
lowerback 3.92459 1.18415 -2.11401
upperback 5.58871 1.62077 3.19986
thorax 3.4245 0.723882 4.4894
lowerneck -12.3452 -0.186098 2.07757
upperneck 41.046 3.50097 -5.33726
head 17.2212 1.60807 -2.01195
rclavicle 1.41137e-014 -9.54166e-015
rhumerus -14.1506 22.5206 -98.7381
rradius 47.6309
rwrist -49.0505
rhand -32.5729 -8.48503
rfingers 7.12502
rthumb -5.8019 -38.3856
lclavicle 1.41137e-014 -9.54166e-015
lhumerus -8.79165 -45.5919 105.035
lradius 42.9628
lwrist 49.0156
lhand -7.77961 63.6277
lfingers 7.12502
lthumb -161.879 87.1964
rfemur -33.694 -1.28294 15.7553
rtibia 27.9548
rfoot -7.78734 -4.52649
rtoes -7.33968
lfemur -32.045 6.67467 -10.6286
ltibia 26.7212
lfoot -9.34716 0.213609
ltoes -19.6756
222
root -10.7845 17.9816 4.58118 -5.40106 81.1244 -24.8012
lowerback 3.90926 1.20598 -2.15981
upperback 5.5919 1.6499 3.16561
thorax 3.43354 0.737141 4.47957
lowerneck -12.3433 -0.202923 2.12306
upperneck 41.026 3.4582 -5.32268
head 17.2064 1.6017 -2.01984
rclavicle -1.13307e-014 -1.66979e-014
rhumerus -14.0699 22.2658 -98.7601
rradius 47.5012
rwrist -48.8666
rhand -32.2082 -8.33678
rfingers 7.12502
rthumb -5.44977 -38.2467
lclavicle -1.13307e-014 -1.66979e-014
lhumerus -8.88363 -45.7695 105.127
lradius 43.1534
lwrist 49.6614
lhand -8.90288 63.9815
lfingers 7.12502
lthumb -162.96 86.7458
rfemur -33.6319 -1.38828 15.5807
rtibia 27.9183
rfoot -7.77192 -4.71054
rtoes -7.16696
lfemur -32.0757 6.60076 -10.8258
ltibia 26.6021
lfoot -9.27987 0.0253146
ltoes -19.4191
223
root -10.7828 17.9836 4.58182 -5.09154 81.2875 -24.5135
lowerback 3.8445 1.24243 -2.30157
upperback 5.62016 1.69725 3.18701
thorax 3.49162 0.753712 4.58423
lowerneck -12.3738 -0.23524 2.11132
upperneck 41.0217 3.40716 -5.30455
head 17.2076 1.58246 -2.01774
rclavicle -2.32578e-014 -4.13472e-014
rhumerus -13.922 22.1718 -98.7275
rradius 47.355
rwrist -48.8023
rhand -32.1585 -8.1845
rfingers 7.12502
rthumb -5.40179 -38.0957
lclavicle -2.32578e-014 -4.13472e-014
lhumerus -8.8189 -45.5415 105.114
lradius 42.9283
lwrist 48.7393
lhand -7.37799 63.3916
lfingers 7.12502
lthumb -161.493 87.4688
rfemur -33.6035 -1.43489 15.4695
rtibia 27.883
rfoot -7.7505 -4.85389
rtoes -6.74295
lfemur -32.0899 6.67487 -10.9816
ltibia 26.4756
lfoot -9.22874 -0.184501
ltoes -19.3458
224
root -10.7808 17.9852 4.58105 -5.29404 81.4083 -24.759
lowerback 3.77374 1.28752 -2.32012
upperback 5.63284 1.75766 3.21566
thorax 3.53775 0.781691 4.62634
lowerneck -12.402 -0.307727 2.08014
upperneck 41.053 3.30748 -5.28581
head 17.2248 1.54173 -2.02111
rclavicle -2.06736e-014 -9.93923e-015
rhumerus -13.8805 22.1965 -98.6779
rradius 47.315
rwrist -48.8649
rhand -32.1551 -8.2029
rfingers 7.12502
rthumb -5.39852 -38.1141
lclavicle -2.06736e-014 -9.93923e-015
lhumerus -8.75787 -45.4216 105.059
lradius 42.7528
lwrist 47.9667
lhand -6.00103 62.8159
lfingers 7.12502
lthumb -160.169 88.1759
rfemur -33.5927 -1.44287 15.4449
rtibia 27.8389
rfoot -7.7129 -5.00364
rtoes -6.986
lfemur -32.1056 6.68459 -11.0111
ltibia 26.3582
lfoot -9.21819 -0.359547
ltoes -19.2836
225
root -10.7782 17.9873 4.57852 -5.44103 81.6025 -24.9244
lowerback 3.75975 1.30513 -2.28407
upperback 5.6248 1.7819 3.21106
thorax 3.53572 0.795471 4.60096
lowerneck -12.4044 -0.364647 2.02696
upperneck 41.0739 3.21263 -5.20752
head 17.2278 1.50752 -1.99203
rclavicle -5.96354e-016 1.66979e-014
rhumerus -13.9286 22.2432 -98.6979
rradius 47.3246
rwrist -48.8828
rhand -32.1131 -8.34468
rfingers 7.12502
rthumb -5.3579 -38.2569
lclavicle -5.96354e-016 1.66979e-014
lhumerus -8.76643 -45.4368 105.063
lradius 42.7108
lwrist 47.9281
lhand -5.61452 62.6957
lfingers 7.12502
lthumb -159.797 88.3349
rfemur -33.5215 -1.3625 15.331
rtibia 27.7766
rfoot -7.71031 -5.29759
rtoes -7.2279
lfemur -32.116 6.55882 -11.0521
ltibia 26.2613
lfoot -9.20691 -0.488438
ltoes -19.1565
226
root -10.7754 17.9898 4.57653 -5.57053 81.8563 -25.0287
lowerback 3.78089 1.31062 -2.28316
upperback 5.62971 1.78987 3.20715
thorax 3.52835 0.800005 4.59577
lowerneck -12.3968 -0.40805 1.99467
upperneck 41.087 3.11607 -5.09527
head 17.223 1.48017 -1.95135
rclavicle -2.54444e-014 -2.3059e-014
rhumerus -13.9519 22.2793 -98.7095
rradius 47.3383
rwrist -48.9332
rhand -32.1393 -8.51239
rfingers 7.12502
rthumb -5.3832 -38.424
lclavicle -2.54444e-014 -2.3059e-014
lhumerus -8.77252 -45.4745 105.074
lradius 42.6577
lwrist 47.8925
lhand -4.47735 62.7439
lfingers 7.12502
lthumb -158.704 88.4061
rfemur -33.3891 -1.24056 15.1721
rtibia 27.713
rfoot -7.67861 -5.70061
rtoes -7.78238
lfemur -32.1122 6.50282 -11.1613
ltibia 26.1654
lfoot -9.19048 -0.666496
ltoes -19.3833
227
root -10.7735 17.9913 4.57331 -5.76862 82.104 -25.2394
lowerback 3.76939 1.30914 -2.28632
upperback 5.63204 1.7883 3.22915
thorax 3.53681 0.798775 4.62105
lowerneck -12.411 -0.430236 1.97713
upperneck 41.1042 3.06174 -5.01765
head 17.2304 1.46733 -1.92202
rclavicle 1.19271e-015 -3.1408e-014
rhumerus -13.9803 22.3835 -98.7058
rradius 47.3922
rwrist -49.1318
rhand -32.2477 -8.57519
rfingers 7.12502
rthumb -5.48789 -38.4841
lclavicle 1.19271e-015 -3.1408e-014
lhumerus -8.77019 -45.6115 105.057
lradius 42.7205
lwrist 47.9519
lhand -8.03111 63.8813
lfingers 7.12502
lthumb -162.121 86.9205
rfemur -33.3307 -1.30675 15.0929
rtibia 27.6712
rfoot -7.63285 -5.92721
rtoes -8.28039
lfemur -32.1601 6.53504 -11.2908
ltibia 26.063
lfoot -9.15945 -0.902405
ltoes -19.6094
228
root -10.7709 17.9929 4.56873 -6.25256 82.4209 -25.7559
lowerback 3.71387 1.24547 -2.27616
upperback 5.64987 1.70439 3.29562
thorax 3.5936 0.755153 4.68816
lowerneck -12.4253 -0.434754 1.93133
upperneck 41.0813 3.07027 -5.02393
head 17.2214 1.46325 -1.91413
rclavicle -2.64384e-014 2.50469e-014
rhumerus -14.0067 22.5242 -98.6821
rradius 47.4246
rwrist -49.1223
rhand -32.1155 -8.50568
rfingers 7.12502
rthumb -5.36029 -38.4179
lclavicle -2.64384e-014 2.50469e-014
lhumerus -8.72314 -45.6346 105.004
lradius 42.79
lwrist 48.0089
lhand -4.96543 63.3473
lfingers 7.12502
lthumb -159.173 87.7505
rfemur -33.2801 -1.56397 15.0731
rtibia 27.6334
rfoot -7.64993 -6.00371
rtoes -7.5438
lfemur -32.2403 6.48973 -11.384
ltibia 25.9628
lfoot -9.12219 -1.23369
ltoes -19.5844
229
root -10.7672 17.9948 4.56628 -7.27784 82.7846 -26.7701
lowerback 3.69005 1.18829 -2.22123
upperback 5.67364 1.62995 3.36896
thorax 3.63882 0.718396 4.73614
lowerneck -12.3783 -0.481263 1.88311
upperneck 41.027 3.01949 -5.04302
head 17.175 1.4345 -1.92086
rclavicle -1.17283e-014 -4.57205e-014
rhumerus -14.0446 22.5875 -98.624
rradius 47.4678
rwrist -48.9895
rhand -31.8104 -8.40838
rfingers 7.12502
rthumb -5.06563 -38.3278
lclavicle -1.17283e-014 -4.57205e-014
lhumerus -8.69677 -45.5819 105.004
lradius 42.7792
lwrist 48.011
lhand -4.90643 62.7273
lfingers 7.12502
lthumb -159.117 88.3767
rfemur -33.149 -1.87641 15.1241
rtibia 27.5842
rfoot -7.64835 -6.08771
rtoes -7.40707
lfemur -32.2679 6.3998 -11.4081
ltibia 25.8459
lfoot -9.09301 -1.61192
ltoes -19.4785
230
root -10.765 17.9972 4.56629 -8.55706 83.0202 -28.0495
lowerback 3.71849 1.21261 -2.10422
upperback 5.65404 1.66386 3.41536
thorax 3.60028 0.740558 4.71671
lowerneck -12.3096 -0.552285 1.85355
upperneck 40.988 2.91952 -5.03237
head 17.1279 1.39447 -1.92586
rclavicle -9.93923e-015 -1.86858e-014
rhumerus -14.1308 22.6367 -98.5907
rradius 47.5198
rwrist -48.9908
rhand -31.8602 -8.27071
rfingers 7.12502
rthumb -5.11376 -38.189
lclavicle -9.93923e-015 -1.86858e-014
lhumerus -8.71937 -45.4985 105.097
lradius 42.6833
lwrist 47.8546
lhand -4.13287 62.4456
lfingers 7.12502
lthumb -158.374 88.7421
rfemur -33.0469 -1.92021 15.1817
rtibia 27.5375
rfoot -7.63884 -6.3154
rtoes -8.03611
lfemur -32.2584 6.38125 -11.3597
ltibia 25.693
lfoot -9.05278 -1.87375
ltoes -19.2867
231
root -10.7637 18.0019 4.56336 -9.40136 83.261 -28.911
lowerback 3.75207 1.22782 -1.98815
upperback 5.62634 1.68571 3.42451
thorax 3.55244 0.757294 4.65848
lowerneck -12.2609 -0.607726 1.86878
upperneck 40.9295 2.83494 -5.04868
head 17.0772 1.36264 -1.94837
rclavicle 9.54166e-015 -1.43125e-014
rhumerus -14.1667 22.687 -98.5899
rradius 47.4769
rwrist -48.9973
rhand -32.1256 -8.23783
rfingers 7.12502
rthumb -5.37004 -38.1498
lclavicle 9.54166e-015 -1.43125e-014
lhumerus -8.71015 -45.4343 105.123
lradius 42.5841
lwrist 47.5996
lhand -4.63807 62.5592
lfingers 7.12502
lthumb -158.859 88.5735
rfemur -32.9655 -1.78457 15.0949
rtibia 27.4822
rfoot -7.65526 -6.69546
rtoes -8.07015
lfemur -32.2602 6.3354 -11.3852
ltibia 25.5213
lfoot -9.01824 -2.09755
ltoes -19.3063
232
root -10.7603 18.0051 4.55761 -8.94836 83.5997 -28.4333
lowerback 3.75119 1.20135 -2.02448
upperback 5.64218 1.65112 3.38482
thorax 3.57299 0.738971 4.63837
lowerneck -12.2264 -0.644549 1.89594
upperneck 40.8873 2.76543 -5.04037
head 17.0399 1.34116 -1.95987
rclavicle -1.31198e-014 -3.57812e-014
rhumerus -14.1615 22.7299 -98.627
rradius 47.4539
rwrist -49.1068
rhand -32.1895 -8.35722
rfingers 7.12502
rthumb -5.43168 -38.2676
lclavicle -1.31198e-014 -3.57812e-014
lhumerus -8.70376 -45.3528 105.061
lradius 42.5818
lwrist 47.2829
lhand -4.32781 62.7609
lfingers 7.12502
lthumb -158.561 88.4054
rfemur -32.8292 -1.92182 14.8739
rtibia 27.4037
rfoot -7.60543 -6.88701
rtoes -8.59702
lfemur -32.2215 6.22527 -11.6234
ltibia 25.3333
lfoot -8.99535 -2.36004
ltoes -19.3854
